<svg width="13" height="12" viewBox="0 0 13 12" fill="none" xmlns="http://www.w3.org/2000/svg">
<path d="M10.1733 0.23662C9.38555 0.872137 8.7414 1.66738 8.28333 2.56995C7.85222 3.12911 7.45482 3.71348 7.0933 4.31995C6.11955 3.15279 5.08364 2.03896 3.99 0.983304C3.8639 0.849725 3.69644 0.762528 3.51469 0.735857C3.33294 0.709186 3.14748 0.744613 2.98832 0.836331C2.82916 0.928049 2.7056 1.07074 2.63755 1.24136C2.5695 1.41198 2.56092 1.60055 2.61327 1.77663C3.04224 3.09709 3.66337 4.34716 4.45662 5.48662C3.21996 5.48662 1.9833 5.83667 0.81663 5.97667C0.614945 6.01017 0.431714 6.11409 0.29952 6.27005C0.167326 6.42601 0.0947266 6.62387 0.0947266 6.82831C0.0947266 7.03276 0.167326 7.23062 0.29952 7.38658C0.431714 7.54254 0.614945 7.64646 0.81663 7.67996C2.02996 7.67996 3.31333 7.95999 4.57333 8.00666C3.8922 8.78005 3.34774 9.66379 2.96333 10.62C2.89931 10.842 2.91029 11.079 2.99466 11.2942C3.07903 11.5093 3.23205 11.6907 3.42995 11.81C3.64098 11.9307 3.88612 11.9778 4.12686 11.944C4.36761 11.9102 4.59032 11.7974 4.75997 11.6233C5.6233 10.9 6.48665 10.27 7.39665 9.64002C8.67403 10.5255 10.0838 11.2028 11.5733 11.6467C12.9267 12.1133 13.51 10.2233 12.4833 9.47667C11.4566 8.73 10.29 7.63323 9.14665 6.74657L8.93666 6.58336C9.61973 5.75942 10.1636 4.82933 10.5467 3.82997C11.0605 2.96842 11.379 2.00469 11.48 1.00666C11.4939 0.848557 11.4627 0.689711 11.3901 0.548581C11.3175 0.407451 11.2064 0.289784 11.0697 0.209205C10.9329 0.128626 10.7762 0.0884248 10.6175 0.0932789C10.4589 0.098133 10.3049 0.147832 10.1733 0.23662Z" fill="#F8CA95"/>
</svg>
